<svg width="1080" height="1383" viewBox="0 0 1080 1383" fill="none" xmlns="http://www.w3.org/2000/svg">
<g clip-path="url(#clip0_2_2)">
<path d="M0 0H1080V1383H0V0Z" fill="#112440"/>
<path d="M754.001 120.29C776.702 98.7359 812.803 69.8455 843.832 63.0023C858.097 67.7528 863.595 75.3823 852.788 88.6187C846.358 96.5007 841.279 104.069 836.375 112.923C851.039 107.3 895.394 88.539 909.044 90.9316C913.022 91.6291 916.912 93.9744 919.135 97.3853C920.979 100.217 921.316 103.538 920.648 106.802C919.56 112.107 917.46 113.929 913.225 116.77C892.82 130.461 882.257 146.953 877.542 170.673C900.034 187.77 931.292 215.868 945.929 240.861C953.162 253.217 948.901 280.78 943.011 294.207C960.457 328.853 977.822 363.679 995.728 398.082C1002.41 410.914 1012.09 423.621 1018.63 436.679C1022.7 444.785 1020.39 453.374 1024.06 461.058C1032.13 477.936 1041.27 494.422 1047.26 512.172C1054.27 532.982 1059.24 550.331 1047.57 570.539C1043.91 576.883 1042.65 580.293 1036.56 585.576C1030.45 590.881 1022.71 594.179 1017.65 600.449C1013.57 605.488 1013.61 613.489 1009.7 618.822C1006.74 623.031 1000.15 626.552 997.288 630.574C982.044 652.009 965.786 673.337 954.392 697.078C989.676 781.922 998.956 869.548 978.734 959.551C953.939 1068.37 887.349 1163.08 793.331 1223.25C760.404 1244.21 724.741 1260.53 687.343 1271.73C579.686 1303.81 463.699 1291.94 364.779 1238.7C265.521 1185.13 191.644 1094.29 159.434 986.211C133.549 898.45 136.589 804.693 168.105 718.795C176.669 695.626 185.398 678.001 196.975 656.559C187.54 644.756 171.653 629.397 161.862 617.402C160.69 615.966 162.996 614.873 161.995 611.957C152.065 609.02 144.151 617.739 133.426 612.706C122.005 607.346 126.923 594.093 121.894 588.034C109.15 572.68 84.9087 567.133 78.715 545.768C73.2563 526.938 79.1926 509.099 83.3424 490.775C87.3793 473.143 90.3877 456.819 98.284 440.415C104.189 428.149 116.385 427.075 122.072 417.568C146.723 376.362 171.622 335.226 194.143 292.804C166.155 256.049 182.646 205.554 214.673 177.804C226.093 167.91 234.398 159.006 247.978 151.519C244.985 129.427 240.754 115.888 230.443 96.03C226.553 88.5363 228.437 81.7699 234.404 75.9765C243.751 66.9006 254.857 72.23 264.745 76.9989C287.728 87.7395 303.964 103.984 321.034 122.217C319.177 114.666 315.366 104.271 311.133 97.6703C301.947 83.3501 297.093 70.275 317.92 63.5049C334.52 62.7042 369.579 97.357 381.318 109.333C463.272 86.7049 551.848 84.1921 636.142 91.4961C661.457 93.6895 691.126 97.7318 715.873 104.249C727.024 107.186 743.518 115.256 754.001 120.29Z" fill="#FEA81A"/>
<path d="M728.591 142.239C731.124 144.006 732.421 145.593 734.494 147.839C737.845 179.673 755.487 225.365 766.82 256.214C782.443 237.682 801.057 222.676 819.753 207.374L823.718 212.436C805.481 227.942 786.225 250.114 772.825 269.971C782.247 294.832 793.56 320.284 804.185 344.693C832.316 409.321 863.602 470.458 907.517 526.015L899.068 540.549C890.902 533.417 885.445 531.64 875.489 527.9L879.96 521.066C846.702 469.181 816.93 415.14 790.845 359.302C779.869 335.278 771.649 312.605 761.451 289.16C750.272 313.929 738.25 338.539 736.284 366.007C733.475 405.269 769.198 438.967 803.833 450.512C811.898 453.201 815.329 453.677 821.205 460.127C815.451 460.01 811.607 459.52 805.968 458.781C810.317 464.827 816.342 471.468 821.03 477.429C835.335 495.625 851.896 513.877 865.304 532.61C861.832 537.629 859.833 540.26 858.097 546.12C844.183 518.806 828.966 499.695 806.63 478.689C800.355 472.791 792.554 464.997 785.388 460.347C778.431 471.503 769.92 491.109 764.267 503.43C799.997 522.536 827.176 543.503 856.138 571.449C858.387 565.348 860.056 560.561 861.852 554.295C867.553 561.763 870.991 564.378 880.055 566.466C878.062 573.538 875.057 581.502 872.855 589.039C880.818 597.346 895.914 617.37 902.499 626.675C951.643 695.754 978.221 778.336 978.599 863.106C979.153 972.618 936.453 1077.92 859.792 1156.13C783.172 1233.78 678.867 1277.86 569.773 1278.69C459.571 1279.94 353.476 1236.93 275.245 1159.32C197.244 1082.33 153.125 977.453 152.643 867.866C152.547 755.336 193.209 658.451 270.059 577.071C265.903 564.624 261.517 550.516 254.75 539.305C258.867 534.584 262.857 529.755 266.718 524.823C276.373 539.528 280.342 542.181 287.56 560.144C313.526 535.603 338.79 519.668 369.323 502.283C365.01 487.919 360.694 472.84 355.929 458.685C342.338 467.751 335.709 466.808 320.016 464.278C301.761 481.034 285.704 501.462 267.482 518.389C265.68 520.063 265.737 520.99 265.92 523.187L265.991 523.95C260.678 516.904 266.258 512.141 256.226 501.635C267.123 483.876 277.915 466.051 288.803 448.289C322.001 394.133 351.688 337.977 381.749 282.025C391.58 296.778 404.418 327.964 408.538 345.551C415.289 374.37 407.506 393.7 392.715 417.532C405.182 407.884 414.464 396.336 418.754 380.971C429.101 343.917 408.83 292.168 391.061 260.082C401.093 237.777 406.331 215.362 410.77 191.346C412.373 182.674 412.657 173.307 414.701 164.753C415.301 162.244 417.378 159.922 419.037 157.902C427.069 165.825 434.527 175.353 442.734 182.993C487.102 224.293 522.355 271.028 552.982 323.579C571.101 301.738 591.409 273.38 611.274 253.416C638.81 225.742 673.554 197.536 703.594 172.264C703.513 174.397 703.52 176.657 703.486 178.803C678.907 206.411 597.344 289.46 588.607 316.519C586.096 324.295 586.111 333.621 585.647 341.744C583.351 381.985 590.132 409.177 608.193 445.331C601.726 412.425 595.024 379.86 601.446 346.402C602.626 340.256 602.865 325.619 610.141 323.867C610.81 326.18 611.656 345.487 611.732 348.953C612.332 376.216 622.87 400.197 638.2 422.71C632.867 401.186 627.009 375.173 627.433 352.941C627.727 337.62 632.976 320.767 635.983 305.797C637.012 300.676 638.035 296.014 642.964 293.296C644.4 294.113 644.162 295.724 644.261 297.466C646.001 327.755 643.164 365.627 667.358 388.512C663.899 373.903 663.081 357.013 662.187 342.161C660.715 318.316 662.89 294.74 667.853 271.394C668.738 267.234 669.954 255.329 675.152 255.206C675.571 255.517 675.989 255.829 676.408 256.14C678.036 269.583 678.394 293.587 680.711 305.814C683.737 321.409 689.822 336.252 698.603 349.49C698.055 327.062 692.395 250.9 698.947 235.543C699.913 233.279 701.142 232.255 703.351 231.289C705.586 232.717 705.661 243.842 706.14 247.606C709.018 270.145 717.575 297.32 725.262 318.834C734.981 301.346 744.025 287.396 755.014 270.749L710.449 164.942C716.744 155.295 720.398 150.272 728.591 142.239Z" fill="#112440"/>
<path d="M557.747 487.921C765.976 483.47 938.377 648.644 942.808 856.832C947.239 1065.02 782.011 1237.37 573.781 1241.78C365.588 1246.18 193.237 1081.02 188.81 872.863C184.383 664.709 349.555 492.372 557.747 487.921Z" fill="#FEA81A"/>
<path d="M314.995 740.033C330.133 747.961 349.665 760.38 365.011 769.456L464.244 828.179C455.74 853.597 455.667 875.727 463.744 901.212C441.754 915.063 416.09 929.406 393.44 942.858C367.837 957.235 340.141 974.279 314.84 989.419C310.958 982.153 306.594 971.463 303.693 963.765C283.262 909.046 280.331 849.329 295.303 792.861C300.818 772.515 306.459 758.942 314.995 740.033Z" fill="#112440"/>
<path d="M484.882 938.056C504.538 958.011 521.2 968.127 549.01 973.455L548.995 1145.9C503.602 1141.77 475.369 1134.01 434.627 1113.4C393.558 1090.67 362.256 1063.28 335.446 1024.55C383.865 995.429 435.782 966.446 484.882 938.056Z" fill="#112440"/>
<path d="M542.103 585.075C543.558 584.859 547.38 584.756 549.028 584.661L549.069 757.767C521.876 762.399 505.383 772.927 486.212 791.734L395.709 739.372L335.996 704.857C340.615 698.334 344.956 692.418 350.067 686.266C397.861 628.085 467.084 591.609 542.103 585.075Z" fill="#112440"/>
<path d="M818.544 742.025C820.841 743.369 827.466 760.427 828.77 763.945C857.077 840.314 853.045 913.793 819.827 987.292L739.925 940.089L669.851 898.579C676.483 874.248 676.746 855.015 669.05 830.631C682.967 821.595 702.344 810.872 716.961 802.221L818.544 742.025Z" fill="#112440"/>
<path d="M649.197 936.098C653.519 937.61 682.568 955.141 688.512 958.565L799.403 1022.72C773.588 1059.67 745.193 1086.47 706.215 1109.21C670.034 1130.96 632.308 1140.48 590.977 1145.43L590.91 972.165C617.171 964.46 630.68 956.174 649.197 936.098Z" fill="#112440"/>
<path d="M591.419 585.094C678.968 594.978 747.503 633.962 798.511 706.444C781.2 717.222 760.471 728.587 742.627 738.939C711.111 756.7 679.387 775.479 648.028 793.625C630.713 775.054 615.664 765.836 590.986 759.178L590.953 632.243C590.952 625.942 590.544 588.993 591.419 585.094Z" fill="#112440"/>
<path d="M560.76 816.065C587.707 813.33 611.833 832.798 614.844 859.709C617.855 886.626 598.626 910.943 571.739 914.225C554.103 916.373 536.67 908.89 526.084 894.628C515.497 880.359 513.388 861.512 520.561 845.257C527.734 829.01 543.084 817.861 560.76 816.065Z" fill="#112440"/>
<path d="M398.383 547.752C412.039 547.852 414.147 558.873 405.946 568.587C408.416 568.181 414.636 567.035 416.397 567.782C436.305 576.227 421.053 591.887 409.488 597.917C402.623 601.497 397.463 604.9 392.297 607.86L391.23 608.138L390.992 607.607L395.296 603.25C392.808 598.17 375.391 567.21 372.413 565.086C370.163 564.383 369.392 564.823 367.093 565.494L366.293 565.731L365.987 565.287C370.194 561.175 392.161 549.206 398.383 547.752Z" fill="#112440"/>
<path d="M403.582 574.137C416.373 576.2 418.681 589.504 406.725 596.386C402.663 593.121 397.164 582.401 394.406 577.559C398.271 575.699 399.427 575.076 403.582 574.137Z" fill="#FEA81A"/>
<path d="M389.559 555.073C392.719 554.969 396.276 555.684 398.176 558.288C403.522 565.619 399.068 570.978 393.733 575.111C391.578 573.882 384.402 560.887 382.632 557.886C384.899 556.789 387.205 555.967 389.559 555.073Z" fill="#FEA81A"/>
<path d="M784.064 580.641C787.096 581.499 794.249 587.553 797.045 589.749C788.9 600.049 777.026 614.556 769.306 625.597C768.536 626.706 769.556 628.175 770.137 629.455L769.799 629.92C765.193 628.72 761.903 627.235 758.188 624.212C756.493 620.004 758.81 624.117 758.857 620.034C730.192 622.071 751.306 578.759 770.481 587.809C774.54 589.725 776.175 593.968 777.168 597.973C779.802 594.831 784.807 589.644 785.854 585.759C786.401 583.727 785.118 582.41 784.064 580.641Z" fill="#112440"/>
<path d="M768.34 592.786C784.192 593.634 765.328 614.829 759.992 617.809C757.412 617.609 756.973 617.721 754.798 616.497C749.496 609.155 762.558 596.605 768.34 592.786Z" fill="#FEA81A"/>
<path d="M904.039 818.266L904.627 818.165C905.289 820.893 906.092 828.814 904.708 831.306C903.553 831.731 903.188 831.853 902.121 832.454C908.294 840.389 910.32 844.305 902.053 851.855L902.378 852.199C906.018 856.177 910.172 860.789 907.896 866.732C904.181 876.415 886.316 872.067 878.076 874.167C875.057 874.937 876.61 876.368 874.266 877.503C873.287 874.349 872.841 863.72 873.422 860.425C877.772 864.395 880.001 863.49 885.735 863.227C890.808 862.997 897.656 863.024 902.296 861.073C904.917 857.811 902.128 855.481 899.547 853.219L898.96 852.713C892.111 852.672 878.866 851.997 873.794 856.292L873.078 856.224C872.443 851.997 871.369 844.596 872.017 840.551L872.949 840.125L873.794 840.74L872.098 840.389L872.409 840.112C874.118 840.922 874.239 841.104 875.665 842.428L876.05 842.793C879.521 843.353 896.501 842.948 900.095 840.665C901.959 839.477 901.77 838.856 902.04 837.127C898.325 828.821 883.182 833.183 876.036 833.595C874.165 833.703 873.469 835.418 872.524 836.83L872.051 836.843C871.261 834.216 869.863 821.521 871.389 819.833C871.666 820.157 873.118 821.913 873.53 822.021C878.731 823.439 890.125 822.068 895.63 821.73C900.952 821.406 901.824 820.987 904.039 818.266Z" fill="#112440"/>
<path d="M581.717 998.38C581.901 994.531 581.952 988.345 582.982 984.834C583.709 987.535 583.568 1015.63 583.444 1020.03C582.786 1043.29 584.314 1069.96 583.04 1092.96C583.386 1096.85 583.132 1106.34 583.128 1110.59L583.026 1146.01L570.219 1146L581.717 998.38Z" fill="#14253B"/>
<path d="M581.717 998.38C581.901 994.531 581.953 988.345 582.982 984.834C583.709 987.535 583.568 1015.63 583.444 1020.03C582.786 1043.29 584.314 1069.96 583.04 1092.96C582.441 1087.22 582.753 1076.13 582.764 1070.04L582.77 1023.27C582.757 1015.73 583.124 1005.97 582.502 998.752L581.717 998.38Z" fill="#402C0B"/>
<path d="M563.645 1178.72C573.191 1176.42 582.781 1182.34 585.02 1191.89C587.26 1201.45 581.293 1211 571.721 1213.18C562.227 1215.35 552.766 1209.44 550.545 1199.97C548.323 1190.49 554.176 1180.99 563.645 1178.72Z" fill="#0E0A03"/>
<path d="M564.697 1180.7C573.06 1179 581.226 1184.37 582.981 1192.72C584.735 1201.07 579.42 1209.27 571.08 1211.08C562.663 1212.91 554.368 1207.53 552.597 1199.1C550.826 1190.68 556.256 1182.42 564.697 1180.7Z" fill="#FEA81A"/>
<path d="M562.901 1186.46C564.038 1186.44 565.175 1186.44 566.312 1186.46C570.336 1186.51 571.52 1186.89 574.314 1189.79C575.778 1194.51 572.343 1195.77 568.424 1196.94C570.551 1199.58 571.918 1201.49 573.798 1204.32L573.575 1205.23L572.189 1204.51C569.756 1201.37 567.261 1198.27 564.708 1195.23C564.787 1199.08 565.027 1201.26 563.889 1204.95C562.678 1203.47 562.903 1189.21 562.901 1186.46Z" fill="#0E0A03"/>
<path d="M564.756 1187.93C567.347 1188 569.873 1187.87 571.841 1189.39C572.99 1191.94 572.671 1191.03 572.341 1194.13C570.123 1194.51 567.448 1195.25 565.551 1194.27C564.256 1191.89 564.73 1190.89 564.756 1187.93Z" fill="#FEA81A"/>
<path d="M474.511 531.628C494.482 532.974 501.462 563.375 477.005 568.559C457.994 568.838 449.727 535.544 474.511 531.628Z" fill="#112440"/>
<path d="M469.807 534.693C471.619 534.663 473.835 534.461 475.135 535.922C480.112 541.517 486.411 559.896 480.72 565.852C471.014 565.215 466.128 541.446 469.807 534.693Z" fill="#FEA81A"/>
<path d="M692.564 546.401C715.86 544.018 718.892 574.183 697.522 582.776C672.948 583.685 672.081 556.172 692.564 546.401Z" fill="#112440"/>
<path d="M698.461 549.399C700.636 549.672 700.541 549.698 702.48 550.786C707.194 557.429 696.752 575.079 691.558 579.877C689.437 579.574 689.518 579.578 687.613 578.567C682.886 572.004 693.341 554.11 698.461 549.399Z" fill="#FEA81A"/>
<path d="M729.003 564.65C752.555 564.009 753.258 592.21 731.955 600.944C707.978 601.876 706.397 573.766 729.003 564.65Z" fill="#112440"/>
<path d="M735.028 568.296C737.291 568.607 737.5 568.539 739.243 569.88C743.093 576.914 730.685 593.173 725.174 597.368C723.391 597.203 723.012 596.893 721.459 596.091C716.832 588.852 729.577 572.922 735.028 568.296Z" fill="#FEA81A"/>
<path d="M809.649 631.522C832.208 631.048 833.187 659.555 809.622 666.649C786.245 667.196 784.334 638.321 809.649 631.522Z" fill="#112440"/>
<path d="M816.369 637.344C819.409 637.242 820.395 637.532 822.151 639.955C822.813 646.94 807.346 657.866 801.625 661.096C799.24 661.274 797.809 660.4 796.282 658.778C794.972 651.388 810.669 640.736 816.369 637.344Z" fill="#FEA81A"/>
<path d="M270.284 690.284C285.155 678.859 306.122 692.716 300.849 709.841C300.773 709.983 300.697 710.125 300.62 710.273L300.222 710.975C288.48 731.842 253.705 712.515 270.284 690.284Z" fill="#15263F"/>
<path d="M270.284 690.284C285.155 678.859 306.122 692.716 300.849 709.841L298.918 708.862C298.184 707.45 297.255 706.154 296.158 704.999C291.383 700.015 278.976 693.107 271.57 692.77L270.284 690.284Z" fill="#112440"/>
<path d="M271.57 692.77C278.976 693.107 291.383 700.015 296.158 704.999C297.255 706.154 298.184 707.45 298.918 708.862C295.012 715.034 290.585 712.535 284.729 710.017C279.85 707.923 271.462 702.825 269.603 697.551C269.866 694.498 269.564 695.667 271.57 692.77Z" fill="#FEA81A"/>
<path d="M646.747 513.884C650.596 513.777 657.236 516.051 661.177 517.192C659.192 523.481 657.324 529.994 655.429 536.326C659.754 534.684 668.631 531.481 671.474 537.201C675.686 545.667 668.832 557.181 667.456 565.802C666.94 569.032 667.277 568.713 669.023 571.46L668.476 571.799C665.085 571.344 655.353 568.556 652.569 566.856L655.9 565.228C657.844 562.232 659.034 556.969 660.043 553.363C661.615 548.374 666.095 539.716 659.465 537.546C651.53 539.313 650.133 555.308 648.368 562.152C648.379 562.108 649.766 564.334 649.707 566.191C647 566.202 636.605 562.846 633.84 561.688L633.815 560.769L636.529 560.305C639.405 557.504 647.238 526.079 649.139 520.177C650.322 516.504 649.261 515.94 646.747 513.884Z" fill="#112440"/>
<path d="M531.147 506.075C533.098 505.838 533.103 505.768 535.127 506.171C537.519 509.357 537.178 520.145 537.624 524.987C559.37 505.923 558.343 537.178 559.018 549.764C559.107 551.428 561.61 552.601 562.967 553.445C560.401 555.096 549.472 555.083 546.13 554.975L545.641 554.442L547.959 552.357C549.14 549.087 547.458 534.793 547.077 530.735C547.051 528.285 547.022 527.269 545.509 525.527C533.248 520.858 539.571 547.519 540.221 553.139C540.235 553.259 542.094 553.931 542.712 555.058C540.026 556.089 527.587 557.183 525.745 555.889C527.212 554.851 527.721 554.635 528.659 553.062C529.178 548.777 526.353 511.559 525.245 509.442C523.948 508.72 523.268 508.467 522.319 507.298C524.488 506.148 528.508 506.231 531.147 506.075Z" fill="#112440"/>
<path d="M710.024 930.446C744.545 950.394 779.471 971.99 813.789 992.546C811.999 995.625 809.926 999.393 807.967 1002.28L743.39 957.498C732.407 949.908 718.291 940.656 707.903 932.694L710.024 930.446Z" fill="#112440"/>
<path d="M555.148 585.985L566.024 585.958L560.862 673.288C559.924 689.062 559.231 706.431 557.765 722.023C555.401 718.485 557.609 716.614 555.916 710.935C555.1 669.722 555.288 627.251 555.148 585.985Z" fill="#152539"/>
<path d="M323.031 724.643L386.539 767.99C399.227 776.614 413.593 785.798 425.706 794.901L424.693 797.44C412.053 790.788 395.246 780.152 382.675 772.697C361.107 759.9 338.736 747.023 317.468 733.868L323.031 724.643Z" fill="#112440"/>
<path d="M696.765 773.528C718.919 760.225 741.181 747.104 763.551 734.158C774.128 727.973 791.298 717.202 801.659 712.029C803.401 714.879 805.569 718.235 807.15 721.112C795.276 727.365 782.963 733.611 770.893 739.473C746.916 751.095 723.208 764.101 699.089 775.344L696.765 773.528Z" fill="#112440"/>
<path d="M327.049 1006.93L435.536 956.438L439.091 957.991L331.97 1016.61C330.023 1013.18 328.707 1010.51 327.049 1006.93Z" fill="#112440"/>
<path d="M262.14 809.271L262.626 810.007C262.368 813.985 261.551 822.183 260.428 825.836L259.68 825.829L259.048 824.269C255.025 821.359 234.855 818.948 230.49 821.595C227.769 831.961 250.298 830.739 256.346 831.407C256.188 831.387 258.897 829.773 259.972 829.564C260.248 832.285 259.091 843.799 257.808 845.939L257.623 844.616C254.132 840.524 238.868 840.476 233.314 839.531C229.396 838.869 227.5 839.16 224.787 841.746L224.237 841.084C224.225 837.62 224.338 831.326 225.767 828.294L228.159 828.247C228.684 826.613 226.238 820.488 225.98 817.942C224.533 803.68 247.599 812.472 255.453 811.905C259.474 811.614 258.974 812.56 262.14 809.271Z" fill="#112440"/>
<path d="M301.302 648.318C309.994 649.543 316.275 657.277 323.418 661.689C325.51 662.981 327.968 662.995 329.958 664.631C329.392 667.283 323.219 674.716 321.265 676.995L320.455 676.691C320.496 675.664 320.557 674.642 320.639 673.62C317.594 669.862 304.918 660.258 299.947 658.219C298.103 657.463 297.86 658.062 296.142 658.963C292.664 664.717 301.048 669.714 305.127 672.638C309.052 675.691 313.648 680.554 318.748 679.129L319.181 679.635C317.547 682.559 311.836 690.305 309.367 692.594C307.499 686.233 290.998 673.447 285.019 672.039C283.656 672.511 283.362 672.821 282.02 672.498C282.705 670.419 288.015 663.321 289.635 661.681C290.604 661.975 291.505 662.324 292.416 662.768C296.67 656.623 289.778 652.417 301.302 648.318Z" fill="#112440"/>
<path d="M240.516 769.861C249.501 769.746 258.228 774.136 266.653 774.365C266.813 773.373 266.984 772.38 267.164 771.387L268.49 771.806C272.413 777.316 271.787 784.11 264.347 785.555C263.808 789.316 270.23 799.196 262.256 803.173C255.409 803.788 251.932 798.426 249.717 792.956L247.208 781.044C245.065 780.504 241.904 779.606 239.769 779.491C237.117 779.356 233.769 782.854 234.225 785.602C237.944 788.749 243.007 786.061 245.436 791.207C245.278 792.889 244.613 795.164 243.207 795.988C232.819 802.093 231.715 786.433 233.339 780.173C234.879 774.23 235.896 772.805 240.516 769.861Z" fill="#112440"/>
<path d="M249.075 781.604C253.399 782.448 258.693 782.82 261.427 786.048C262.214 788.263 261.964 788.648 261.48 791.072C253.707 794.077 251.855 787.56 249.075 781.604Z" fill="#FEA81A"/>
<path d="M326.296 618.689C339.275 616.754 343.296 631.74 352.154 635.07L354.276 632.54L355.021 632.982C357.346 642.268 352.811 642.527 344.802 644.067C342.643 647.014 342.898 650.531 341.448 653.784C340.767 655.352 339.405 656.521 337.752 656.957C331.018 658.696 328.879 653.944 327.572 648.587C328.017 642.78 330.161 636.78 332.013 631.263C327.258 626.423 325.587 623.421 319.179 627.595C317.415 632.138 323.761 631.801 325.697 637.417C322.985 651.577 301.889 634.066 326.296 618.689Z" fill="#112440"/>
<path d="M333.522 633.025C339.024 636.843 343.433 639.438 340.65 645.894C331.784 649.213 332.89 638.187 333.522 633.025Z" fill="#FEA81A"/>
<path d="M887.302 797.501C890.355 796.488 894.097 795.752 896.211 793.719C897.373 791.389 897.319 789.201 895.826 787.027C890.591 785.352 888.565 791.376 884.344 788.033C882.946 784.17 882.736 781.3 886.478 779.065C896.947 777.249 904.221 795.569 898.676 802.586C894.394 807.995 881.223 808.312 874.699 810.662C871.943 811.655 872.781 812.465 873.99 814.673C870.119 815.653 861.981 806.367 870.612 800.58C866.56 796.684 859.853 789.316 864.736 783.624C874.145 778.228 882.567 791.214 887.302 797.501Z" fill="#112440"/>
<path d="M870.612 800.58C866.56 796.684 859.853 789.316 864.736 783.623C874.145 778.228 882.567 791.214 887.302 797.501C885.796 797.872 886.255 797.724 884.567 797.413C880.899 798.358 877.036 799.425 873.341 800.175L870.612 800.58Z" fill="#112440"/>
<path d="M873.341 800.175C871.457 798.068 870.059 796.603 870.849 793.658C875.928 789.472 880.886 793.868 884.567 797.413C880.899 798.358 877.036 799.425 873.341 800.175Z" fill="#FEA81A"/>
<path d="M278.427 981.045C281.421 983.517 288.823 1002.8 290.842 1007.74C288.912 1005.23 287.287 1002.2 284.754 1000.91C279.574 1001.51 246.91 1015.38 243.853 1018.88C243.072 1021.29 243.82 1022.79 244.528 1025.28C241.405 1022.2 234.233 1003.9 231.77 998.481C233.033 1000.22 237.177 1006.65 239.256 1005.76C247.309 1002.32 273.612 992.998 279.093 987.825C279.893 985.327 279.116 983.652 278.427 981.045Z" fill="#112440"/>
<path d="M245.985 883.513C247.685 884.107 249.358 884.769 251.002 885.505C265.465 892.082 263.918 908.721 249.125 913.307C226.723 920.255 210.568 892.386 239.632 885.161C240.168 888.321 240.423 892.265 240.716 895.526C240.87 897.437 241.168 903.069 241.79 904.609C256.863 900.017 259.294 893.163 245.985 883.513Z" fill="#112440"/>
<path d="M239.318 905.284C235.009 905.061 225.501 905.331 227.111 898.592C229.723 895.567 234.822 894.041 238.539 895.445L240.716 895.526C240.87 897.437 241.168 903.069 241.79 904.609L239.318 905.284Z" fill="#FEA81A"/>
<path d="M238.539 895.445L240.716 895.526C240.87 897.437 241.168 903.069 241.79 904.609L239.318 905.284C238.86 901.611 238.648 899.139 238.539 895.445Z" fill="#162128"/>
<path d="M583.18 519.49C595.01 520.116 596.6 527.071 598.02 537.357C594.538 537.093 581.486 535.711 579.014 536.814C576.701 542.603 584.46 558.432 596.319 545.517C597.189 553.547 580.613 561.06 573.478 552.604C564.174 541.577 567.403 522.311 583.18 519.49Z" fill="#112440"/>
<path d="M582.441 521.611C588.83 521.835 590.178 529.349 588.092 533.874L586.434 534.28C582.352 534.331 580.529 535.214 578.475 531.428C578.181 528.025 580.614 524.401 582.441 521.611Z" fill="#FEA81A"/>
<path d="M872.308 777.087C866.026 775.77 859.596 774.399 856.293 768.51C848.296 754.255 867.917 741.33 880.521 745.814C887.059 748.144 893.084 756.267 890.091 763.122C887.667 768.362 883.472 770.921 878.596 773.521L875.685 764.54C874.759 762.021 873.821 758.455 873.044 755.788C866.749 755.362 857.536 766.741 864.277 772.056C867.026 774.23 869.687 774.601 872.308 777.087Z" fill="#112440"/>
<path d="M874.253 754.343C878.927 753.148 883.763 751.115 887.025 755.714C887.336 760.636 882.02 762.973 877.785 763.858L875.685 764.54C874.759 762.021 873.821 758.455 873.044 755.788L874.253 754.343Z" fill="#FEA81A"/>
<path d="M873.044 755.788L874.253 754.343C876.09 757.942 876.624 759.954 877.785 763.858L875.685 764.54C874.759 762.021 873.821 758.455 873.044 755.788Z" fill="#162128"/>
<path d="M872.267 939.441C896.717 938.191 906.639 968.228 880.69 969.754C878.799 969.863 877.995 969.079 876.772 967.864C876.083 964.987 878.508 958.869 879.474 955.688L880.602 950.117C864.223 949.658 860.859 954.837 869.505 968.816C857.887 958.781 854.882 944.505 872.267 939.441Z" fill="#112440"/>
<path d="M882.865 950.65C884.411 951.305 885.944 951.981 887.464 952.697C890.51 954.121 892.145 954.77 893.286 957.944C892.874 960.726 893.111 959.774 891.105 962.198C886.323 962.299 884.891 961.921 880.17 960.895C880.791 956.62 881.466 954.77 882.865 950.65Z" fill="#FEA81A"/>
<path d="M884.796 704.06C886.829 708.254 888.842 712.468 890.821 716.688L888.43 718.086C880.352 721.415 856.53 732.531 848.857 737.778C847.709 738.568 849.6 741.789 848.708 743.842C844.507 737.15 839.921 726.007 836.699 718.566L842.373 725.791C850.019 723.34 875.529 710.908 883.013 706.856L884.796 704.06Z" fill="#112440"/>
<path d="M858.434 661.149C854.713 663.621 851.066 665.951 847.628 668.811C846.865 671.642 849.087 670.133 849.411 673.663L847.81 674.991C844.352 674.789 846.952 673.121 843.312 672.064C836.362 675.712 829.087 681.823 822.691 686.489C820.699 687.934 821.874 691.135 820.847 692.513C817.504 688.38 812.776 681.83 810.155 677.251L810.493 676.772C812.979 678.366 812.371 678.494 814.877 678.548C818.22 676.981 835.801 665.176 837.28 662.402C836.267 660.886 835.747 660.387 835.605 658.56C837.132 656.894 836.287 657.153 838.003 657.051C839.158 658.457 839.313 658.756 840.799 659.876C850.397 658.326 849.776 651.614 860.434 660.037L858.434 661.149Z" fill="#112440"/>
<path d="M338.031 586.674C342.775 588.785 363.749 617.829 370.125 622.014C370.053 621.967 372.634 621.609 374.014 621.869C371.753 624.889 365.018 630.241 361.873 632.907C361.68 633.006 360.805 633.099 360.546 633.136C360.997 631.123 360.536 627.572 359.042 626.142C350.988 618.437 340.623 602.005 332.15 595.791C330.75 595.86 329.581 595.882 328.19 595.882C329.982 593.318 335.436 588.921 338.031 586.674Z" fill="#112440"/>
<path d="M445.395 540.039C449.137 540.211 452.735 542.842 451.679 547.006C450.179 552.922 444.964 548.268 441.55 550.276C438.566 556.055 444.159 570.473 447.975 574.873C450.169 574.929 450.432 574.825 452.275 575.86L452.166 576.085C449.02 578.382 439.161 582.034 435.284 583.336C435.854 582.281 436.445 581.237 437.056 580.206C436.902 574.612 430.312 560.271 427.367 554.847C426.067 552.454 425.366 552.568 423.315 552.201L422.871 551.446C424.779 549.984 432.449 547.022 435.072 545.928L438.053 551.971C440.15 545.853 440.427 544.133 445.395 540.039Z" fill="#112440"/>
<path d="M605.948 522.145C609.822 522.609 613.749 522.896 617.579 523.557C619.386 525.405 619.166 527.351 619.711 530.349C622.071 530.942 625.082 523.258 632.776 525.514C635.649 528.037 636.208 532.093 633.69 535.062C632.303 534.885 629.685 533.664 628.22 533.129C619.948 530.11 618.859 536.342 617.141 542.767C616.044 548.821 613.329 554.853 618.93 558.489L618.363 558.885C613.321 559.036 606.004 557.656 601.197 556.131L601.372 555.519C604.368 553.679 604.957 553.086 605.705 549.599C607.128 542.96 608.244 536.112 608.77 529.339C609.093 525.193 608.524 525.055 605.948 522.145Z" fill="#112440"/>
<path d="M856.51 968.08C858.063 972.213 858.34 972.523 862.534 974.509C868.532 977.345 874.969 979.323 881.142 981.673C885.681 983.409 884.269 981.68 887.863 980.822C887.484 983.517 884.269 991.033 883.121 993.943C881.487 993.106 880.244 992.215 878.461 992.262C878.083 996.429 881.446 996.543 880.379 1006.12C876.097 1008.33 871.889 1007.7 870.761 1002.47C871.558 999.346 875.144 997.934 875.604 996.685C878.204 989.547 859.11 984.172 854.112 982.801C854.429 982.882 850.836 984.476 850.404 984.584C850.998 980.809 854.909 972.003 856.51 968.08Z" fill="#112440"/>
<path d="M232.749 929.568C237.622 929.331 256.462 926.374 259.078 922.714C258.362 919.729 257.28 920.35 255.684 917.703L255.59 918.155L256.263 917.527C259.992 917.467 264.047 922.781 264.422 925.847C266.124 939.778 243.689 935.645 236.001 940.555C234.048 941.797 236.156 942.128 234.467 944.127C226.635 939.076 224.017 936.962 215.562 933.322C219.135 932.62 226.356 931.56 229.071 929.987C230.244 929.824 231.587 929.581 232.749 929.568Z" fill="#112440"/>
<path d="M232.432 739.27C236.748 740.709 241.037 742.235 245.294 743.842C246.873 744.234 247.372 744.294 248.862 745.003C254.463 747.144 269.776 753.857 274.868 752.621C276.426 750.338 274.885 750.494 274.727 746.361C280.496 748.468 279.989 760.528 273.469 762.156C265.54 764.134 253.387 757.888 245.715 754.869C244.776 756.382 243.861 757.908 242.972 759.448C239.672 749.893 238.029 747.374 232.432 739.27Z" fill="#112440"/>
<path d="M505.818 511.036C506.765 515.279 507.55 520.222 508.345 524.547L509.358 528.207C509.623 532.629 512.537 552.194 515.265 554.682C518.233 554.643 518.374 552.759 521.027 551.734C519.756 556.244 514.364 561.745 509.669 560.651C499.862 558.365 502.223 535.597 498.514 530.733L495.165 530.492L494.793 529.742C499.974 521.793 501.933 519.597 505.818 511.036Z" fill="#112440"/>
<path d="M897.717 929.797C891.713 928.764 876.313 925.226 871.538 926.421C869.95 928.798 871.436 930.655 872.686 933.066C865.891 930.912 864.736 919.735 872.092 916.521C879.015 913.489 894.867 921.14 899.561 918.297L900.398 915.758C900.905 916.008 911.948 929.811 914.893 932.553L901.054 930.506L897.717 929.797Z" fill="#112440"/>
<path d="M873.321 892.103C873.179 894.75 873.139 895.135 874.28 897.505C881.129 901.584 890.558 878.306 901.614 885.377C907.146 888.915 907.477 893.23 906.126 898.903L904.755 896.168C903.107 893.473 903.722 893.568 901.324 892.278C893.509 894.054 888.221 909.957 879.46 907.047C870.491 904.075 869.518 897.35 871.808 889.786L873.321 892.103Z" fill="#112440"/>
<path d="M232.196 863.342L232.959 863.571C239.237 865.449 248.449 865.672 254.938 864.814C256.554 863.639 256.669 862.943 257.463 861.12L257.664 861.08C258.427 864.443 258.292 875.652 257.739 879.144C255.93 878.387 255.99 876.375 255.527 876.28C249.449 875.065 232.611 875.092 227.194 875.585C225.434 876.76 225.299 877.057 223.967 878.752C223.001 876.584 223.067 869.284 223.545 866.799C224 864.436 228.778 864.726 230.801 864.632L232.196 863.342Z" fill="#112440"/>
<path d="M256.053 718.289C264.784 722.32 274.202 726.919 283.246 730.235C285.997 731.241 286.205 730.309 288.84 728.857C288.686 732.173 283.621 742.052 281.906 745.591C281.238 744.828 281.27 743.376 281.09 742.147C277.497 738.203 261.684 732.186 255.978 730.032C254.475 729.465 253.728 732.24 250.734 731.389C251.063 728.465 254.66 721.334 256.053 718.289Z" fill="#112440"/>
<path d="M247.962 972.057C253.965 970.119 263.028 967.492 269.119 965.244C269.718 965.027 270.199 961.752 272.28 961.286C274.053 964.906 276.781 973.347 277.251 977.365L276.398 977.466C274.839 976.082 274.715 975.413 272.471 975.832C265.716 977.095 253.1 980.802 247.14 983.544C246.069 985.185 245.695 985.806 244.885 987.582C242.886 984.077 241.197 978.567 240.866 974.603C242.173 973.266 242.343 973.61 244.53 973.097L247.962 972.057Z" fill="#112440"/>
<path d="M237.478 967.708C229.68 949.874 255.372 951.663 264.601 945.707C264.95 944.08 264.928 943.486 266.068 942.25C268.343 943.648 270.428 954.439 271.417 957.829C269.364 959.24 268.536 956.363 266.085 957.005C260.002 958.592 245.194 961.509 241.549 966.581L241.132 967.499L237.478 967.708Z" fill="#112440"/>
<path d="M838.962 1012.5C840.293 1014.57 840.509 1015.34 842.636 1016.3C846.973 1016.88 863.716 1004.11 870.673 1012.92C873.037 1015.9 872.24 1021.41 871.099 1024.67C869.869 1023.66 869.95 1023.74 869.363 1022.25C864.108 1013.97 853.754 1028.1 843.744 1025.83C836.152 1024.12 835.362 1017.6 836.463 1011.62C837.422 1011.85 838.523 1011.9 838.962 1012.5Z" fill="#112440"/>
<path d="M502.792 911.342C508.546 909.87 514.417 913.293 515.964 919.026C517.511 924.76 514.158 930.668 508.442 932.289C504.682 933.349 500.64 932.309 497.861 929.561C495.082 926.819 493.995 922.788 495.016 919.02C496.037 915.245 499.007 912.314 502.792 911.342Z" fill="#112440"/>
<path d="M480.441 856.609C486.21 855.205 492.034 858.709 493.504 864.456C494.974 870.21 491.545 876.071 485.81 877.611C482.039 878.624 478.014 877.53 475.274 874.748C472.535 871.965 471.502 867.927 472.571 864.172C473.64 860.418 476.646 857.528 480.441 856.609Z" fill="#112440"/>
<path d="M504.179 797.94C509.996 796.947 515.541 800.783 516.653 806.577C517.764 812.371 514.035 817.996 508.262 819.218C504.425 820.035 500.446 818.712 497.86 815.761C495.274 812.816 494.483 808.697 495.794 805.003C497.105 801.303 500.312 798.601 504.179 797.94Z" fill="#112440"/>
<path d="M645.485 859.283C651.18 857.46 657.279 860.587 659.112 866.279C660.946 871.972 657.82 878.077 652.129 879.914C646.429 881.757 640.316 878.624 638.481 872.924C636.645 867.225 639.781 861.113 645.485 859.283Z" fill="#112440"/>
<path d="M618.416 914.684C622.171 913.489 626.28 914.428 629.146 917.129C632.012 919.837 633.184 923.882 632.205 927.697C631.226 931.513 628.251 934.497 624.437 935.49C618.757 936.969 612.933 933.653 611.302 928.021C609.67 922.383 612.824 916.474 618.416 914.684Z" fill="#112440"/>
<path d="M561.487 772.238C567.206 770.55 573.212 773.805 574.925 779.511C576.64 785.217 573.416 791.241 567.715 792.983C561.973 794.732 555.901 791.484 554.176 785.737C552.45 779.99 555.729 773.933 561.487 772.238Z" fill="#112440"/>
<path d="M620.273 796.542C625.855 794.563 631.987 797.44 634.04 802.991C636.094 808.542 633.308 814.714 627.784 816.848C624.14 818.252 620.021 817.591 617.004 815.112C613.987 812.627 612.54 808.717 613.217 804.868C613.895 801.026 616.591 797.838 620.273 796.542Z" fill="#112440"/>
<path d="M562.42 937.651C568.17 936.199 574.016 939.65 575.532 945.376C577.048 951.11 573.671 956.991 567.957 958.578C564.2 959.618 560.174 958.558 557.416 955.803C554.657 953.055 553.593 949.03 554.628 945.268C555.664 941.514 558.64 938.603 562.42 937.651Z" fill="#112440"/>
<path d="M241.189 713.461C243.113 712.475 245.43 712.65 247.179 713.926C248.927 715.203 249.808 717.35 249.456 719.484C249.103 721.618 247.577 723.374 245.512 724.015C242.677 724.9 239.636 723.468 238.511 720.72C237.386 717.971 238.549 714.818 241.189 713.461Z" fill="#112440"/>
<path d="M230.801 864.632C225.787 861.329 220.631 857.075 224.386 850.518C226.635 848.823 225.575 849.208 228.381 849.066C230.78 850.106 230.824 850.214 232.48 852.321C232.828 854.928 231.496 856.244 230.074 859.047C230.213 861.822 229.987 860.816 232.196 863.342L230.801 864.632Z" fill="#152539"/>
<path d="M888.43 718.086L890.821 716.688L897.852 731.896C893.205 734.023 888.254 736.407 883.54 738.298C891.084 730.809 893.752 728.439 888.43 718.086Z" fill="#152539"/>
<path d="M860.434 660.037C868.89 669.081 865.614 678.217 856.922 672.53C855.807 668.93 858.333 666.584 860.589 663.846C859.893 662.164 859.887 662.293 858.434 661.149L860.434 660.037Z" fill="#112440"/>
<path d="M836.463 1011.62C837.807 1009.15 841.333 1003.11 843.562 1001.55C847.445 1000.71 851.099 1003.43 854.895 1005.4C848.425 1005.76 841.866 1005.5 838.962 1012.5C838.523 1011.9 837.422 1011.85 836.463 1011.62Z" fill="#162128"/>
<path d="M466.659 941.926L466.735 942.898L439.091 957.991L435.536 956.438C445.438 952.177 456.766 946.545 466.659 941.926Z" fill="#0E0A03"/>
<path d="M879.352 690.683C880.062 693.134 880.994 695.599 881.845 698.01L880.298 700.529C876.185 695.748 870.579 697.098 864.919 697.551C869.714 695.228 874.53 692.938 879.352 690.683Z" fill="#152539"/>
<path d="M869.363 1022.25C869.95 1023.74 869.869 1023.66 871.099 1024.67C870.612 1025.49 865.628 1032.41 864.939 1032.98C861.717 1033.67 856.888 1030.48 853.599 1028.83C860.832 1028.57 865.533 1029.46 869.363 1022.25Z" fill="#162128"/>
<path d="M425.706 794.901C429.014 797.116 449.381 810.338 450.511 812.31C449.783 811.344 450.002 811.405 448.733 811.554C440.629 807.002 432.615 802.295 424.693 797.44L425.706 794.901Z" fill="#0E0A03"/>
<path d="M690.079 918.439L710.024 930.446L707.903 932.694C701.676 928.312 695.198 923.99 688.897 919.688L690.079 918.439Z" fill="#0E0A03"/>
<path d="M904.755 896.168L906.126 898.903C904.714 901.712 904.728 902.63 904.552 905.716C902.675 907.222 895.475 906.263 892.449 906.135C898.804 903.171 901.331 902.333 904.755 896.168Z" fill="#152539"/>
<path d="M871.808 889.786C872.835 887.484 872.814 886.666 872.747 884.148L873.523 883.148C876.894 883 880.825 883.425 884.242 883.695C879.312 886.572 876.941 887.632 873.321 892.103L871.808 889.786Z" fill="#152539"/>
<path d="M696.765 773.528L699.089 775.344C692.409 778.714 684.189 783.151 677.496 786.149L676.3 785.291C681.413 782.84 691.517 776.573 696.765 773.528Z" fill="#0E0A03"/>
<path d="M555.916 710.935C557.609 716.614 555.401 718.485 557.765 722.023C558.045 726.899 556.93 741.438 556.093 746.253C555.826 734.482 555.767 722.705 555.916 710.935Z" fill="#0E0A03"/>
<path d="M245.294 743.842C246.293 741.033 246.711 738.683 249.04 737.042L250.325 737.17C251.41 740.108 250.146 741.985 248.862 745.003C247.372 744.294 246.873 744.234 245.294 743.842Z" fill="#162128"/>
<path d="M897.717 929.797L901.054 930.506C900.716 933.822 901.148 936.253 898.203 938.137L897.17 937.374C896.197 934.727 897.055 932.647 897.717 929.797Z" fill="#162128"/>
<path d="M508.345 524.547C511.187 523.998 513.464 523.16 515.977 524.29L516.496 525.367C514.474 527.956 512.789 527.688 509.358 528.207L508.345 524.547Z" fill="#152539"/>
<path d="M229.071 929.986C228.428 927.204 227.606 925.327 228.653 922.781L229.712 922.281C231.666 923.605 231.771 924.159 232.205 926.407C232.403 927.454 232.585 928.508 232.749 929.568C231.587 929.581 230.244 929.824 229.071 929.986Z" fill="#152539"/>
<path d="M237.478 967.708L241.132 967.499L241.548 966.581C243.603 970.031 244.262 970.491 247.962 972.057L244.53 973.097C241.043 971.024 240.29 970.619 237.478 967.708Z" fill="#162128"/>
<path d="M688.897 919.688C685.412 917.311 677.975 912.436 675.161 909.701C680.211 912.105 685.297 915.461 690.079 918.439L688.897 919.688Z" fill="#402C0B"/>
<path d="M880.298 700.529L881.845 698.01L884.796 704.06L883.013 706.856L880.298 700.529Z" fill="#162128"/>
<path d="M677.496 786.149C675.659 787.284 669.297 791.065 667.505 790.538L666.649 791.43L666.754 791.092L667.461 791.227L667.58 790.383C669.237 789.134 674.252 786.446 676.3 785.291L677.496 786.149Z" fill="#402C0B"/>
<path d="M466.659 941.926C468.82 940.656 470.506 939.353 472.943 939.13C471.876 940.859 468.704 942.034 466.735 942.898L466.659 941.926Z" fill="#8D5713"/>
<path d="M510.978 288.183C513.197 288.056 513.425 288.054 515.617 288.367C519.113 291.159 519.57 294.098 521.045 297.924C539.968 347.036 541.502 384.683 527.568 435.854C526.764 438.788 525.32 442.521 524.276 445.452C524.78 417.569 524.884 384.864 522.519 357.286C520.759 336.755 515.36 308.468 510.978 288.183Z" fill="#FEA81A"/>
<path d="M471.529 247.209C473.276 247.132 474.412 247.2 476.161 247.311C479.628 250.473 486.859 271.374 489.3 276.797C506.555 315.138 507.362 349.233 497.271 390.163L494.932 397.1C493.205 370.204 493.336 341.567 488.761 314.872C485.013 293.002 477.48 268.79 471.529 247.209Z" fill="#FEA81A"/>
<path d="M427.976 198.578C428.452 198.562 430.74 198.488 431.015 198.589C435.214 200.147 436.85 213.272 437.784 216.498C446.763 247.525 439.149 276.477 426.841 305.309C425.527 308.384 424.522 310.122 422.858 312.998C428.099 282.021 430.623 252.998 428.534 221.651C428.211 216.81 425.948 201.268 427.976 198.578Z" fill="#FEA81A"/>
<path d="M451.012 241.072C452.753 241.086 453.513 241.142 455.245 241.352C460.162 245.144 465.04 267.398 466.848 274.308C473.287 298.906 468.584 324.724 462.429 348.906C461.843 351.755 460.891 354.126 459.889 356.836C460.012 340.003 460.972 324.367 460.314 307.187C459.43 284.095 455.918 263.71 451.012 241.072Z" fill="#FEA81A"/>
<path d="M318.351 74.1026C322.823 74.1222 331.507 80.1877 335.354 82.824C362.49 101.422 384.77 126.867 401.803 154.87C400.157 178.198 389.01 221.254 380.299 243.281C361.306 208.305 341.97 194.689 301.957 190.18C304.736 193.26 311.279 200.895 314.406 202.874C340.585 219.447 357.615 239.027 372.542 266.659C366.707 283.631 354.162 306.926 346.004 323.483C316.307 383.76 284.734 434.291 245.084 488.26C241.126 488.402 237.343 488.899 233.414 489.358C223.852 471.124 212.963 460.807 198.392 446.689C210.212 429.577 221.519 411.357 233.241 394.198C237.56 387.875 249.421 368.798 254.459 364.863C262.922 358.252 278.1 349.137 287.807 342.869C287.995 337.53 287.807 331.894 287.722 326.531C274.97 340.454 272.377 341.03 253.647 344.726C253.953 335.014 257.817 312.567 264.592 306.07C278.584 292.65 308.35 291.887 326.486 291.105C320.315 270.876 311.825 246.312 303.859 226.717C298.177 232.158 292.528 237.632 286.911 243.139C276.882 254.352 276.521 258.349 274.436 272.845C274.159 274.773 273.576 277.759 272.513 279.461C270.845 280.275 270.333 280.692 268.458 280.629C263.713 277.128 265.134 255.836 264.659 249.581C263.899 239.554 267.111 229.828 271.035 220.713C250.737 235.079 241.264 260.107 237.415 283.691C236.815 287.368 236.878 292.712 233.382 294.572L232.099 294.019C228.704 290.052 227.24 281.455 225.988 276.159C217.92 289.658 159.205 399.483 158.558 408.957C165.949 419.73 187.655 385.533 190.955 380.372C193.749 376.001 196.939 367.588 200.099 364.165C202.152 364.108 202.582 363.966 204.446 364.915C204.315 366.389 195.7 387.468 194.637 389.666C190.441 398.336 183.368 420.768 177.192 426.883C170.682 427.093 159.187 423.099 151.542 423.968C145.908 424.608 135.575 427.795 130.567 425.797C130.063 423.602 144.584 400.574 146.728 396.855C166.726 362.177 189.177 327.468 206.572 291.444C166.812 240.574 207.282 190.741 250.989 161.565L259.039 167.069C258.862 131.823 252.663 118.71 238.335 87.7388C241.126 84.0672 241.594 83.6918 245.284 80.9177C277.616 88.7531 307.129 120.898 326.571 145.927C328.951 148.991 330.566 149.685 334.284 148.979L334.927 147.961C335.15 142.916 334.35 139.354 333.898 134.489C331.89 112.831 323.758 96.8127 312.54 78.7993C314.323 77.2171 316.464 75.5984 318.351 74.1026Z" fill="#112440"/>
<path d="M340.043 104.52C342.35 104.937 344.918 107.779 346.658 109.46C362.269 124.529 372.043 141.354 380.929 160.827C376.512 169.88 372.606 179.173 369.23 188.662L367.511 194.949C363.596 192.891 360.919 191.583 356.833 189.925L357.58 182.998C361.576 144.251 359.736 138.208 335.248 108.107L340.043 104.52Z" fill="#FEA81A"/>
<path d="M247.703 182.162C253.907 182.993 265.327 186.596 271.416 188.526C244.05 201.38 225.944 215.65 224.512 247.843L224.749 259.57L217.601 263.858C213.238 230.603 221.399 204.329 247.703 182.162Z" fill="#FEA81A"/>
<path d="M840.786 74.3133C843.481 74.0587 845.027 74.4774 847.29 75.8057C848.452 78.5069 843.94 82.7146 841.711 85.4367C828.662 101.387 821.381 118.398 815.674 137.999C841.069 118.426 876.009 108.416 906.774 100.842C907.369 101.136 907.963 101.43 908.564 101.723C910.145 103.961 910.03 103.141 910.158 105.543C907.308 109.027 901.344 112.107 897.548 115.54C879.177 132.156 867.735 151.83 866.465 176.863C866.992 177.117 867.512 177.389 868.026 177.668C883.459 186.023 932.522 231.482 937.195 247.85C941.633 263.362 938.668 280.102 930.921 293.923C949.171 329.509 966.853 365.406 985.292 400.899C992.533 414.837 1001.64 427.196 1008.98 440.969C1010.09 443.055 1010.68 447.058 1011.08 449.51C968.974 456.488 954.311 469.876 926.855 501.573C922.228 506.918 915.994 515.556 911.482 520.385L911.158 520.729C906.261 512.77 902.627 505.021 898.561 496.619C909.078 482.162 930.907 466.248 946.226 457.291C936.513 437.345 898.838 392.099 882.142 375.703C879.352 372.969 858.975 363.186 851.95 358.076C852.842 353.41 855.226 336.901 858.813 332.978C859.4 332.341 860.934 332.903 862.082 333.114C868.998 336.776 872.862 343.078 877.225 349.334L885.809 349.235C882.365 337.239 875.131 332.507 864.783 326.35C850.633 317.932 837.456 312.436 821.401 308.959C818.949 285.802 826.784 247.09 837.084 226.87C850.113 237.787 860.819 273.852 870.032 289.768C873.652 257.976 873.334 250.603 865.526 220.254C886.89 238.144 896.994 271.229 904.154 296.887C910.793 284.316 920.256 260.291 925.781 246.664C916.291 229.178 896.305 213.504 881.115 201.005C860.711 184.214 835.295 172.971 810.628 164.034C810.054 170.334 810.007 174.182 810.088 180.458C799.97 190.78 791.365 201.833 782.071 212.847C781.47 212.911 780.869 212.976 780.268 213.041C778.053 212.14 778.14 212.24 776.83 210.259C776.506 202.035 778.519 194.109 779.761 186.187C784.692 154.723 793.574 137.376 806.994 109.533C792.473 115.85 777.965 128.628 768.928 141.647C766.314 145.409 755.372 167.26 749.638 166.148C746.963 161.956 746.146 149.202 745.517 143.683C773.811 113.769 802.172 89.9531 840.786 74.3133Z" fill="#112440"/>
<path d="M955.472 362.564C957.782 365.387 985.198 427.417 987.204 433.422C985.961 434.786 985.414 434.526 983.246 435.103C979.47 436.114 975.924 436.696 972.074 437.375C971.905 418.985 965.043 398.467 957.965 381.757C955.702 376.407 952.73 371.844 951.062 366.381C951.683 364.589 953.77 363.647 955.472 362.564Z" fill="#FEA81A"/>
<path d="M524.546 98.8852C568.72 96.263 696.198 101.854 732.732 121.606C726.126 128.101 719.831 135.391 713.117 142.053C705.722 139.494 698.414 137.334 690.916 135.094C678.023 145.318 663.252 158.717 650.541 169.615L571.137 237.681L571.18 269.104L571.293 283.239C567.798 288.524 558.925 299.07 554.631 304.467C534.142 276.844 540.361 271.052 540.484 237.22C502.483 203.181 461.221 168.735 422.437 135.257L411.805 137.752L391.903 117.344C434.783 106.068 480.341 100.977 524.546 98.8852Z" fill="#112440"/>
<path d="M520.795 124.558C538.609 124.036 644.676 123.882 654.074 131.417C653.892 133.648 651.844 136.63 650.202 137.741C642.197 143.155 589.875 193.255 583.887 193.231C580.451 191.506 579.659 187.316 578.411 183.624C576.777 179.581 574.482 175.967 570.88 173.394C565.874 169.819 558.32 168.369 552.29 169.428C543.05 171.048 537.964 177.768 534.17 185.708C533.142 187.859 532.201 190.61 530.728 192.477C530.314 193.003 529.888 193.652 529.155 193.598C525.425 193.317 463.955 140.239 459.255 134.449C458.269 133.233 458.21 133.328 458.381 131.818C466.39 125.627 508.936 124.976 520.795 124.558Z" fill="#FEA81A"/>
<path d="M523.693 104.959C562.756 102.414 646.733 106.283 681.825 118.632C678.293 120.773 669.897 124.969 665.982 124.687C656.183 123.98 644.382 120.785 634.533 119.042C622.177 116.9 609.733 115.294 597.237 114.228C567.297 112.076 537.227 112.467 507.352 115.395C499.481 116.051 491.63 116.936 483.81 118.049C474.706 119.403 444.626 126.678 439.243 119.492L439.656 118.134C449.346 107.991 506.976 105.764 523.693 104.959Z" fill="#FEA81A"/>
<path d="M549.158 178.341C552.032 178.391 553.682 178.233 556.357 179.416C560.744 184.493 554.37 192.751 551.204 197.538L549.146 197.739C543.249 195.383 541.312 189.347 543.116 183.352C543.946 180.591 546.716 179.473 549.158 178.341Z" fill="#FEA81A"/>
<path d="M87.711 518.912C92.697 496.08 97.6816 470.906 105.887 449.386C112.87 431.07 131.208 427.937 148.244 432.711C177.858 441.008 207.028 472.053 225.636 494.98C215.746 505.917 214.268 507.268 223.247 519.948C217.018 534.745 204.206 554.28 193.873 566.648C196.707 570.047 199.593 573.401 202.53 576.71C214.632 564.033 225.072 548.366 235.034 533.887L239.617 538.157C243.56 536.089 246.174 534.569 249.899 532.142L253.744 537.158C246.371 545.413 240.087 561.699 235.492 571.985C228.708 587.172 226.406 600.554 205.834 594.098C204.818 594.865 201.749 597.224 200.695 597.367C193.893 598.288 186.151 598.013 179.366 598.617C167.691 599.657 148.878 603.137 137.537 602.966C133.975 598.482 134.512 586.52 131.257 582.402C122.389 571.184 104.79 562.645 94.4531 552.884C109.297 528.189 126.45 547.516 141.343 560.508C153.709 560.473 157.136 560.827 169.064 565.098L175.957 561.276C164.931 555.284 148.841 547.797 145.164 534.791C140.449 518.112 154.743 502.966 169.61 498.586L170.191 498.42C148.463 524.148 175.613 551.08 184.053 543.762C183.499 540.343 180.551 536.198 179.036 532.939C171.626 517 192.267 494.955 201.71 483.325C193.879 471.293 174.505 461.677 160.782 458.765C120.788 450.278 99.3505 483.327 96.2179 518.814L88.2696 519.789L87.711 518.912Z" fill="#112440"/>
<path d="M1011.59 461.12C1013.41 462.769 1020.57 477.387 1022.1 480.666C1032.23 502.412 1047.43 531.849 1042.82 556.275C1018.1 556.524 1020.02 566.892 999.949 576.746C998.983 577.221 997.517 575.661 996.761 575.023C996.707 573.331 1000.25 568.476 1001.51 566.23C1004.69 557.111 1006.45 543.344 1000.47 535.031C990.473 521.165 977.511 506.959 961.855 499.616C957.938 497.781 953.683 497.066 953.683 492.042C954.007 491.539 954.419 490.913 954.912 490.165C966.077 484.977 979.659 481.522 990.52 475.768C999.537 470.99 1004.64 467.249 1011.59 461.12Z" fill="#112440"/>
<path d="M693.03 147.011C696.279 147.474 703.574 150.053 707.005 151.164C696.765 167.461 661.327 193.977 645.14 207.959C625.215 225.17 606.416 242.497 589.116 262.395L581.678 270.851C581.597 261.394 581.628 251.936 581.771 242.479C592.667 232.456 606.564 221.212 618.019 211.402L693.03 147.011Z" fill="#112440"/>
<path d="M347.601 474.896C348.585 474.619 348.528 474.778 349.663 474.95C351.482 478.039 355.614 493.135 356.794 497.196C337.581 508.394 318.615 520.386 301.359 534.457C298.995 536.385 293.975 541.139 291.499 542.05L290.47 541.133C286.358 534.331 282.812 529.169 278.178 522.689L323.12 475.836C333.437 476.741 337.558 477.032 347.601 474.896Z" fill="#112440"/>
<path d="M909.99 538.728C913.09 539.178 914.67 544.264 915.812 546.987C918.581 553.609 920.587 560.525 921.782 567.601C923.221 576.444 923.694 585.194 926.882 593.84C927.598 597.904 937.331 606.104 937.824 608.951C938.979 615.615 924.241 613.775 922.282 613.672C918.993 611.818 917.703 610.736 914.785 608.377C899.574 595.993 901.729 590.373 891.976 575.864C890.193 573.218 884.215 568.683 881.527 566.673C899.46 565.893 909.267 563.073 903.168 542.844L909.99 538.728Z" fill="#112440"/>
<path d="M1024.6 571.787C1026.77 572.526 1027.8 574.074 1028.76 576.049C1028.69 577.292 1028.9 578.365 1027.86 579.172C1021.73 583.994 1014.42 587.238 1009.43 593.45C1003.03 601.336 1004.42 620.291 988.399 615.345C974.648 611.098 976.465 608.63 961.051 613.024L951.798 608.995C950.062 612.368 949.096 615.71 945.01 615.694L944.213 614.821C943.936 610.051 950.049 600.576 952.379 594.421C957.985 593.547 966.414 593.03 972.378 592.313C994.964 589.596 1006.1 583.109 1024.6 571.787Z" fill="#112440"/>
<path d="M788.609 476.536C793.25 480.244 798.599 485.8 802.962 489.917C822.637 508.483 834.754 524.663 847.371 548.532L840.05 542.355C817.065 523.347 803.144 514.286 777.931 498.9L788.609 476.536Z" fill="#112440"/>
<path d="M957.262 624.902C966.313 624.466 977.64 626.019 986.826 626.914C972.898 640.244 965.678 652.792 956.405 669.62L949.887 681.755C946.003 671.711 942.241 661.622 938.6 651.487C942.727 643.229 949.238 633.286 954.736 625.72C954.736 625.72 957.019 624.979 957.262 624.902Z" fill="#112440"/>
<path d="M466.157 187.469C487.31 204.694 509.159 224.043 529.956 241.887C529.967 250.003 530.24 259.859 529.871 267.836C516.347 249.503 504.107 231.949 488.806 214.863C480.267 205.329 472.177 197.345 463.053 188.409C464.291 188.241 464.983 187.897 466.157 187.469Z" fill="#112440"/>
<path d="M202.223 610.146L203.042 610.124C207.586 613.697 212.512 618.692 216.746 622.759L200.022 643.93L194.971 638.404C188.568 631.326 180.592 623.235 174.63 615.734C173.609 614.45 174.041 613.88 174.38 612.759C177.654 610.658 195.88 610.817 202.223 610.146Z" fill="#112440"/>
<path d="M910.28 619.082C914.42 621.517 917.811 623.424 922.654 623.942C940.843 625.891 944.882 621.228 933.379 639.656L928.712 647.285C922.741 637.772 916.595 628.369 910.28 619.082Z" fill="#112440"/>
<path d="M238.882 590.714C243.619 580.168 247.456 570.071 252.546 559.598C254.493 564.371 256.312 569.195 258 574.066C256.14 576.373 242.982 591.51 241.114 593.083L238.882 590.714Z" fill="#152539"/>
<path d="M229.768 602.239L232.172 604.21L224.058 615.126C221.324 612.608 218.491 609.749 215.804 607.142C222.194 606.112 224.217 605.518 229.768 602.239Z" fill="#152539"/>
<path d="M463.053 188.409C457.019 182.634 450.817 176.1 444.928 170.11L444.787 169.276L443.742 168.643L443.758 168.623L444.654 169.077L443.903 168.806L444.636 169.646L445.182 169.456C452.2 175.024 459.376 181.534 466.157 187.469C464.983 187.897 464.291 188.241 463.053 188.409Z" fill="#0E0A03"/>
<path d="M238.882 590.714L241.114 593.083L232.172 604.21L229.768 602.239C234.129 598.633 235.99 595.512 238.882 590.714Z" fill="#0E0A03"/>
<path d="M87.711 518.912L88.2696 519.789C87.6617 524.865 88.5627 540.012 87.9082 542.189C86.5094 533.109 85.3882 527.716 87.711 518.912Z" fill="#E3940A"/>
</g>
<defs>
<clipPath id="clip0_2_2">
<rect width="1080" height="1383" fill="white"/>
</clipPath>
</defs>
</svg>
